<svg xmlns="http://www.w3.org/2000/svg" width="24.785" height="19.273" viewBox="0 0 24.785 19.273"><path d="M11.792,34.929,4.116,41.491v9.144a.688.688,0,0,0,.688.688l4.821-.012a.688.688,0,0,0,.685-.688V46.5A.688.688,0,0,1,11,45.816h2.754a.688.688,0,0,1,.688.688v4.115a.688.688,0,0,0,.688.691l4.82.013a.688.688,0,0,0,.688-.688l-.172-9.144-7.34-6.562a1.973,1.973,0,0,0-1.334,0Zm5.748.761h0l-3.852-3.169a2.065,2.065,0,0,0-2.625,0L.172,41.491a.516.516,0,0,0-.069.727l1.1,1.334a.516.516,0,0,0,.728.07l10.12-8.336a.524.524,0,0,1,.658,0l10.121,8.336a.516.516,0,0,0,.727-.069l1.1-1.334a.516.516,0,0,0,.115-.379c-.014-.137-7.12-6.063-7.227-6.149Z" transform="translate(0.015 -32.051)" fill="#256fdf"/></svg>