<svg xmlns="http://www.w3.org/2000/svg" width="23.784" height="18.125" viewBox="0 0 23.784 18.125"><path d="M23.455,73.843l-7.928,7.928a1.135,1.135,0,0,1-1.935-.8V76.439H7.173a1.13,1.13,0,0,1-1.133-1.133V70.776a1.13,1.13,0,0,1,1.133-1.133h6.418V65.112a1.135,1.135,0,0,1,1.935-.8l7.928,7.928A1.142,1.142,0,0,1,23.455,73.843ZM9.061,81.536V79.648a.568.568,0,0,0-.566-.566H4.531a1.509,1.509,0,0,1-1.51-1.51V68.51A1.509,1.509,0,0,1,4.531,67H8.495a.568.568,0,0,0,.566-.566V64.546a.568.568,0,0,0-.566-.566H4.531A4.532,4.532,0,0,0,0,68.51v9.061A4.532,4.532,0,0,0,4.531,82.1H8.495A.568.568,0,0,0,9.061,81.536Z" transform="translate(0 -63.979)" fill="#9ba6c4"/></svg>