<svg xmlns="http://www.w3.org/2000/svg" width="130" height="49" viewBox="0 0 130 49"><path d="M0,0H81.5A24.5,24.5,0,0,1,106,24.5v0A24.5,24.5,0,0,1,81.5,49H0a0,0,0,0,1,0,0V0A0,0,0,0,1,0,0Z" transform="translate(24)" fill="#256fdf" opacity="0.17"/><circle cx="24.5" cy="24.5" r="24.5" fill="#256fdf"/><path d="M21.48-21V0H18.27L6.69-14.22V0H2.82V-21H6.03L17.61-6.78V-21Z" transform="translate(12 35)" fill="#fff"/><path d="M6.72-17.73v6.39H16.86v3.3H6.72V0H2.82V-21H18.15v3.27Zm15.03-4.53H25.5V0H21.75ZM45.66-7.92q0,.39-.06,1.11H33.03a4.357,4.357,0,0,0,1.725,2.805A5.654,5.654,0,0,0,38.22-2.97a5.839,5.839,0,0,0,4.35-1.74L44.58-2.4A6.772,6.772,0,0,1,41.85-.45a9.944,9.944,0,0,1-3.72.66A9.9,9.9,0,0,1,33.48-.84a7.562,7.562,0,0,1-3.1-2.925,8.26,8.26,0,0,1-1.1-4.245,8.382,8.382,0,0,1,1.065-4.215A7.555,7.555,0,0,1,33.3-15.15a8.622,8.622,0,0,1,4.26-1.05,8.4,8.4,0,0,1,4.185,1.035,7.33,7.33,0,0,1,2.88,2.91A8.824,8.824,0,0,1,45.66-7.92Zm-8.1-5.28a4.523,4.523,0,0,0-3.045,1.065A4.48,4.48,0,0,0,33-9.3h9.09a4.421,4.421,0,0,0-1.47-2.82A4.47,4.47,0,0,0,37.56-13.2ZM59.19,0,55.08-5.55,50.94,0H46.8l6.24-8.13-5.97-7.89h4.17l3.93,5.25,3.93-5.25h4.05l-6,7.83L63.42,0Z" transform="translate(52 35)" fill="#14275a"/></svg>